<?xml version="1.0" encoding="utf-8"?>
<svg xmlns="http://www.w3.org/2000/svg" width="59" height="22" viewBox="0 0 59 22" fill="none">
<g id="deel" clip-path="url(#clip0_2108_28027)">
<path id="Vector" d="M47.8545 20.7669C47.7688 20.7669 47.6992 20.6973 47.6992 20.6116V1.90739C47.6992 1.83375 47.751 1.77025 47.8231 1.75534L51.0898 1.07993C51.1862 1.06001 51.2766 1.13359 51.2766 1.23198V20.6116C51.2766 20.6973 51.207 20.7669 51.1212 20.7669H47.8545Z" fill="#343434"/>
<path id="Vector_2" d="M6.81919 21.163C5.51497 21.163 4.35049 20.8462 3.32575 20.2128C2.30101 19.5793 1.49053 18.7129 0.894321 17.6136C0.298106 16.5144 0 15.2661 0 13.8686C0 12.4713 0.298106 11.2323 0.894321 10.1517C1.49053 9.05238 2.30101 8.19532 3.32575 7.58047C4.35049 6.947 5.51497 6.63026 6.81919 6.63026C7.86256 6.63026 8.77553 6.82589 9.55803 7.21715C10.1866 7.53142 10.719 7.94785 11.1551 8.46644C11.2534 8.58327 11.4585 8.51683 11.4585 8.36417V1.57145C11.4585 1.49782 11.5102 1.43431 11.5823 1.4194L14.8491 0.743994C14.9454 0.724073 15.0358 0.797653 15.0358 0.896044V20.6723C15.0358 20.7581 14.9662 20.8276 14.8805 20.8276H11.9773C11.9032 20.8276 11.8394 20.7751 11.825 20.7023L11.5272 19.1921C11.501 19.0592 11.3267 19.0196 11.2399 19.1237C10.8231 19.6238 10.2996 20.0706 9.6698 20.4642C8.94321 20.93 7.99298 21.163 6.81919 21.163ZM7.57377 18.0328C8.72889 18.0328 9.6698 17.6509 10.3965 16.887C11.1417 16.1045 11.5143 15.1077 11.5143 13.8966C11.5143 12.6855 11.1417 11.6981 10.3965 10.9342C9.6698 10.1517 8.72889 9.76037 7.57377 9.76037C6.43724 9.76037 5.49633 10.1423 4.75107 10.9062C4.0058 11.6701 3.63317 12.6576 3.63317 13.8686C3.63317 15.0797 4.0058 16.0765 4.75107 16.859C5.49633 17.6415 6.43724 18.0328 7.57377 18.0328Z" fill="#343434"/>
<path id="Vector_3" d="M23.7567 21.165C22.3593 21.165 21.1203 20.8669 20.0397 20.2707C18.959 19.6745 18.1113 18.836 17.4964 17.7554C16.8816 16.6748 16.5742 15.4265 16.5742 14.0105C16.5742 12.5758 16.8723 11.2995 17.4685 10.1817C18.0833 9.06375 18.9217 8.19738 19.9838 7.58253C21.0644 6.94906 22.3314 6.63232 23.7846 6.63232C25.1447 6.63232 26.3465 6.93043 27.3899 7.52665C28.4332 8.12286 29.2437 8.94264 29.8213 9.98602C30.4175 11.0107 30.7156 12.1566 30.7156 13.4235C30.7156 13.6285 30.7063 13.8428 30.6877 14.0663C30.6877 14.2454 30.6817 14.4305 30.6698 14.6216C30.6646 14.7025 30.597 14.765 30.516 14.765H20.2898C20.1999 14.765 20.1285 14.8414 20.1375 14.9309C20.2374 15.9328 20.6053 16.7253 21.2414 17.3083C21.9308 17.9231 22.7599 18.2305 23.7287 18.2305C24.4554 18.2305 25.0609 18.0721 25.5453 17.7554C26.0194 17.4394 26.3777 17.0406 26.6201 16.559C26.6472 16.5051 26.7019 16.4699 26.7623 16.4699H30.0881C30.192 16.4699 30.2666 16.5699 30.2338 16.6685C29.9679 17.467 29.5509 18.202 28.9828 18.8733C28.3867 19.5813 27.6413 20.1403 26.7471 20.5502C25.8714 20.96 24.8746 21.165 23.7567 21.165ZM23.7846 9.53888C22.909 9.53888 22.1357 9.79037 21.465 10.2934C20.8355 10.7481 20.4194 11.4323 20.2166 12.3463C20.1955 12.4411 20.2689 12.5293 20.366 12.5293H26.9174C27.0068 12.5293 27.0781 12.4537 27.0691 12.3647C26.9847 11.5286 26.6537 10.8568 26.0763 10.3494C25.4615 9.80904 24.6976 9.53888 23.7846 9.53888Z" fill="#343434"/>
<path id="Vector_4" d="M39.3192 21.165C37.9218 21.165 36.6828 20.8669 35.6022 20.2707C34.5215 19.6745 33.6738 18.836 33.059 17.7554C32.4441 16.6748 32.1367 15.4265 32.1367 14.0105C32.1367 12.5758 32.4348 11.2995 33.031 10.1817C33.6458 9.06375 34.4842 8.19738 35.5463 7.58253C36.6269 6.94906 37.8939 6.63232 39.3471 6.63232C40.7072 6.63232 41.909 6.93043 42.9524 7.52665C43.9957 8.12286 44.8062 8.94264 45.3838 9.98602C45.98 11.0107 46.2781 12.1566 46.2781 13.4235C46.2781 13.6285 46.2688 13.8428 46.2502 14.0663C46.2502 14.2454 46.2442 14.4305 46.2323 14.6216C46.2271 14.7025 46.1595 14.765 46.0785 14.765H35.8523C35.7624 14.765 35.691 14.8414 35.7 14.9309C35.7999 15.9328 36.1678 16.7253 36.8039 17.3083C37.4933 17.9231 38.3224 18.2305 39.2912 18.2305C40.0179 18.2305 40.6234 18.0721 41.1078 17.7554C41.5819 17.4394 41.9402 17.0406 42.1826 16.559C42.2097 16.5051 42.2644 16.4699 42.3248 16.4699H45.6506C45.7545 16.4699 45.8291 16.5699 45.7963 16.6685C45.5304 17.467 45.1134 18.202 44.5453 18.8733C43.9492 19.5813 43.2038 20.1403 42.3096 20.5502C41.4339 20.96 40.4371 21.165 39.3192 21.165ZM39.3471 9.53888C38.4715 9.53888 37.6982 9.79037 37.0275 10.2934C36.3981 10.7481 35.9819 11.4323 35.7791 12.3463C35.758 12.4411 35.8314 12.5293 35.9285 12.5293H42.4799C42.5693 12.5293 42.6406 12.4537 42.6316 12.3647C42.5472 11.5286 42.2162 10.8568 41.6388 10.3494C41.024 9.80904 40.2601 9.53888 39.3471 9.53888Z" fill="#343434"/>
<path id="Vector_5" d="M55.9631 20.7714C57.2932 20.7714 58.3715 19.6931 58.3715 18.363C58.3715 17.0329 57.2932 15.9546 55.9631 15.9546C54.633 15.9546 53.5547 17.0329 53.5547 18.363C53.5547 19.6931 54.633 20.7714 55.9631 20.7714Z" fill="#343434"/>
</g>
<defs>
<clipPath id="clip0_2108_28027">
<rect width="58.8223" height="20.4599" fill="white" transform="translate(0 0.705078)"/>
</clipPath>
</defs>
</svg>