<?xml version="1.0" encoding="utf-8"?>
<svg xmlns="http://www.w3.org/2000/svg" width="98" height="24" viewBox="0 0 98 24" fill="none">
<g id="vercel">
<path id="Vector" d="M48.9883 6.53393C45.2766 6.53393 42.6002 8.96465 42.6002 12.6107C42.6002 16.2568 45.6094 18.6875 49.3246 18.6875C51.567 18.6875 53.544 17.7963 54.7677 16.2939L52.1957 14.8017C51.5166 15.5479 50.4844 15.9834 49.3246 15.9834C47.7141 15.9834 46.3458 15.1393 45.838 13.7889H55.2587C55.3325 13.4108 55.3764 13.0192 55.3764 12.6074C55.3764 8.96465 52.7035 6.53393 48.9883 6.53393ZM45.8111 11.4291C46.2313 10.0821 47.3812 9.23473 48.9883 9.23473C50.5987 9.23473 51.7486 10.0821 52.1656 11.4291H45.8111ZM45.0513 2.82032L35.7348 19.0251L26.4152 2.82032H29.9083L35.7316 12.9483L41.5547 2.82032H45.0513ZM13.5618 1.13232L25.9848 22.7387H1.13879L13.5618 1.13232ZM68.892 12.6107C68.892 14.6363 70.21 15.9867 72.2541 15.9867C73.6394 15.9867 74.6783 15.3554 75.2128 14.3257L77.7949 15.8213C76.7257 17.6106 74.722 18.6875 72.2541 18.6875C68.5389 18.6875 65.8662 16.2568 65.8662 12.6107C65.8662 8.96465 68.5424 6.53393 72.2541 6.53393C74.722 6.53393 76.7224 7.61088 77.7949 9.40014L75.2128 10.8957C74.6783 9.86604 73.6394 9.23473 72.2541 9.23473C70.2134 9.23473 68.892 10.5851 68.892 12.6107ZM96.6227 2.82032V18.3499H93.5969V2.82032H96.6227ZM85.1915 6.53393C81.4797 6.53393 78.8036 8.96465 78.8036 12.6107C78.8036 16.2568 81.8161 18.6875 85.5278 18.6875C87.7702 18.6875 89.7472 17.7963 90.9709 16.2939L88.3989 14.8017C87.7198 15.5479 86.6876 15.9834 85.5278 15.9834C83.9172 15.9834 82.549 15.1393 82.0411 13.7889H91.4619C91.5357 13.4108 91.5794 13.0192 91.5794 12.6074C91.5794 8.96465 88.9067 6.53393 85.1915 6.53393ZM82.0142 11.4291C82.4347 10.0821 83.5811 9.23473 85.1915 9.23473C86.8019 9.23473 87.9518 10.0821 88.3688 11.4291H82.0142ZM64.8575 6.87153V10.1429C64.5214 10.045 64.1648 9.97745 63.7816 9.97745C61.8282 9.97745 60.4195 11.3278 60.4195 13.3534V18.3499H57.3937V6.87153H60.4195V9.97745C60.4195 8.26244 62.4064 6.87153 64.8575 6.87153Z" fill="#343434"/>
</g>
</svg>