<?xml version="1.0" encoding="utf-8"?>
<svg xmlns="http://www.w3.org/2000/svg" width="82" height="24" viewBox="0 0 82 24" fill="none">
<path d="M5.08978 4.67345L0 18.8683H2.21088L3.6848 14.6914H9.21676L10.6859 18.8683H12.9753L7.88072 4.67345H5.08978ZM4.37659 12.723L6.45435 6.84629L8.52259 12.7277L4.37659 12.723ZM22.444 9.69191C22.7793 10.3172 22.9433 11.0201 22.9195 11.7293V18.8611H20.7419V12.1001C20.7419 11.3441 20.5446 10.7926 20.1547 10.4479C19.723 10.0888 19.1727 9.90394 18.6118 9.92964C18.2338 9.92958 17.8593 10.0022 17.5088 10.1436C17.1504 10.2873 16.8433 10.5348 16.6268 10.8544C16.3795 11.2406 16.259 11.6944 16.2821 12.1524V18.8849H14.0617V8.23939H16.2726V9.49935C16.3972 9.31552 16.5432 9.14713 16.7076 8.99774C17.063 8.68306 17.4765 8.4408 17.9248 8.28456C18.3889 8.11648 18.8789 8.03118 19.3725 8.03256C19.997 8.02241 20.614 8.1687 21.1674 8.4581C21.7062 8.73965 22.1533 9.1694 22.4559 9.69667L22.444 9.69191ZM31.6085 7.05787C31.1766 7.32978 30.8626 7.75403 30.7289 8.24652C30.2232 8.08564 29.6953 8.00542 29.1646 8.00879C28.4172 7.99734 27.6773 8.16013 27.0037 8.48425C26.3938 8.77962 25.8754 9.23476 25.5036 9.80127C25.1219 10.4074 24.9283 11.113 24.9473 11.8291C24.9271 12.53 25.114 13.2213 25.4846 13.8165C25.6727 14.1084 25.9044 14.3697 26.1716 14.5915L26.0718 14.6367C25.7122 14.8206 25.4054 15.093 25.1803 15.4283C24.9691 15.7523 24.8475 16.1265 24.8279 16.5127C24.8083 16.899 24.8913 17.2836 25.0685 17.6273C25.2381 17.9563 25.5022 18.2271 25.8269 18.4047C25.4829 18.4789 25.1588 18.6256 24.876 18.835C24.6441 19.006 24.4578 19.2314 24.3335 19.4913C24.2091 19.7512 24.1505 20.0377 24.1628 20.3255C24.1628 21.1877 24.5883 21.8494 25.4394 22.3106C26.2905 22.7718 27.4189 23.0016 28.8247 23C30.4349 23 31.7162 22.6997 32.6687 22.099C33.1206 21.8327 33.4918 21.4489 33.7429 20.9884C33.9941 20.528 34.1158 20.0081 34.0951 19.484C34.1123 19.1255 34.0513 18.7675 33.9162 18.435C33.7812 18.1025 33.5753 17.8033 33.313 17.5584C32.7371 17.0638 31.9935 16.8086 31.2352 16.8452C31.0997 16.8452 30.8739 16.8452 30.5577 16.8452C30.2415 16.8452 29.904 16.8618 29.5521 16.8737C29.2003 16.8856 28.877 16.8975 28.5798 16.9046C28.2826 16.9117 28.0806 16.9046 27.9712 16.9046C27.6458 16.9215 27.3224 16.8448 27.0393 16.6835C26.9294 16.6157 26.8396 16.5198 26.779 16.4058C26.7184 16.2917 26.6893 16.1636 26.6946 16.0345C26.6931 15.9036 26.7204 15.774 26.7746 15.6548C26.8289 15.5357 26.9087 15.4299 27.0084 15.3451C27.0756 15.2852 27.1471 15.2304 27.2224 15.1811C27.7981 15.4018 28.4102 15.5123 29.0267 15.5068C29.7654 15.5199 30.4973 15.3638 31.1663 15.0503C31.6267 14.8095 32.0334 14.4777 32.3618 14.0749C32.6901 13.6722 32.9333 13.207 33.0764 12.7075C33.2196 12.208 33.2598 11.6846 33.1946 11.1691C33.1294 10.6536 32.9602 10.1567 32.6973 9.70855C32.5114 9.42417 32.2838 9.16934 32.0221 8.95258C32.1111 8.86012 32.2189 8.78795 32.3383 8.741C32.7448 8.58647 33.3653 8.59598 34.2045 8.7719V6.74645C33.149 6.53249 32.2884 6.63472 31.6204 7.06263L31.6085 7.05787ZM30.9405 18.8112C31.2656 18.7895 31.5871 18.8904 31.8414 19.0941C31.9456 19.1888 32.0279 19.305 32.0825 19.4348C32.1371 19.5645 32.1627 19.7046 32.1576 19.8453C32.1576 20.385 31.8795 20.7962 31.3256 21.0815C30.7717 21.3668 30.0014 21.5071 29.0148 21.5071C28.0639 21.5071 27.3507 21.3723 26.8753 21.1029C26.3998 20.8335 26.1621 20.4753 26.1621 20.0284C26.1694 19.7229 26.2877 19.4305 26.4949 19.2058C26.7184 18.9427 27.1209 18.8112 27.7026 18.8112H30.9405ZM30.6552 13.3173C30.3582 13.6314 29.9725 13.8475 29.5495 13.9367C29.1266 14.026 28.6864 13.9841 28.2879 13.8167C27.8893 13.6494 27.5513 13.3644 27.3188 12.9999C27.0864 12.6355 26.9707 12.2088 26.987 11.7768C26.9726 11.4995 27.0154 11.2221 27.1128 10.962C27.2101 10.7019 27.3599 10.4646 27.5528 10.2648C27.763 10.0729 28.0095 9.92478 28.2777 9.82926C28.5459 9.73373 28.8304 9.6927 29.1147 9.70855C29.3964 9.69347 29.6783 9.73584 29.9431 9.83311C30.2079 9.93038 30.4502 10.0805 30.6552 10.2743C31.0218 10.6965 31.2237 11.2367 31.2237 11.7958C31.2237 12.3549 31.0218 12.8952 30.6552 13.3173ZM42.4156 8.58172C41.6898 8.20529 40.8821 8.01419 40.0645 8.02543C39.1832 8.01573 38.314 8.23179 37.5398 8.65304C36.7547 9.08877 36.1137 9.74388 35.695 10.5382C35.2064 11.505 34.9693 12.5793 35.0056 13.662C34.9831 14.6504 35.1838 15.6313 35.5928 16.5314C35.9585 17.3199 36.5566 17.9777 37.3068 18.4166C38.1339 18.8753 39.0692 19.1027 40.0146 19.0751C41.0885 19.1048 42.1447 18.7963 43.0337 18.1931C43.8781 17.5964 44.4651 16.7019 44.6764 15.6898H42.4275C42.31 16.1438 42.0289 16.5383 41.6383 16.7976C41.1847 17.0768 40.6585 17.215 40.1263 17.1946C39.1754 17.1946 38.4527 16.8666 37.9582 16.2104C37.5153 15.59 37.2625 14.854 37.2308 14.0923H44.7287C44.743 13.8759 44.7501 13.6453 44.7501 13.4029C44.7501 12.1445 44.537 11.1207 44.1106 10.3314C43.7359 9.58995 43.1448 8.97979 42.4156 8.58172ZM37.9653 10.7926C38.2115 10.4807 38.5283 10.2318 38.8895 10.0665C39.2508 9.90117 39.6462 9.82411 40.0431 9.84168C40.518 9.8329 40.9866 9.95108 41.4005 10.184C41.8225 10.442 42.1495 10.8299 42.3324 11.2895C42.4789 11.6576 42.5594 12.0487 42.5702 12.4448H37.2926C37.3732 11.846 37.6047 11.2774 37.9653 10.7926ZM46.6544 4.67345H48.8629V18.8683H46.6544V4.67345ZM53.5675 16.8808H60.0956V18.8683H51.3566V4.67345H53.5675V16.8808ZM61.636 8.23939H63.8469V18.8849H61.636V8.23939ZM63.6734 4.38818C63.7958 4.51002 63.8922 4.65544 63.9567 4.81562C64.0213 4.9758 64.0527 5.14741 64.049 5.32007C64.0535 5.49568 64.0225 5.67039 63.958 5.83377C63.8935 5.99715 63.7967 6.14585 63.6734 6.27099C63.555 6.39598 63.4118 6.49481 63.2529 6.56114C63.0941 6.62747 62.9231 6.65982 62.751 6.65611C62.5743 6.66236 62.3983 6.63129 62.2345 6.56493C62.0706 6.49857 61.9226 6.39841 61.8001 6.27099C61.6768 6.14585 61.58 5.99715 61.5155 5.83377C61.4509 5.67039 61.42 5.49568 61.4245 5.32007C61.4208 5.14741 61.4522 4.9758 61.5167 4.81562C61.5813 4.65544 61.6777 4.51002 61.8001 4.38818C61.9225 4.26044 62.0704 4.15992 62.2343 4.09316C62.3981 4.0264 62.5742 3.99488 62.751 4.00068C62.9224 3.99589 63.0929 4.02682 63.2517 4.09148C63.4105 4.15615 63.5541 4.25314 63.6734 4.37629V4.38818ZM67.6577 11.1801C67.648 11.3296 67.6722 11.4793 67.7286 11.6181C67.785 11.7568 67.8721 11.881 67.9834 11.9812C68.2482 12.1862 68.5564 12.3277 68.8844 12.3949C69.2695 12.49 69.7125 12.5779 70.2133 12.6588C70.6702 12.7268 71.1232 12.818 71.5707 12.9322C72.0046 13.043 72.4207 13.2143 72.8069 13.4409C73.1813 13.6576 73.4927 13.9681 73.7103 14.3419C73.95 14.7899 74.0658 15.2938 74.0455 15.8016C74.0455 16.8571 73.6636 17.6685 72.8997 18.2359C72.1358 18.8033 71.1183 19.087 69.8472 19.087C68.9979 19.1155 68.153 18.953 67.3748 18.6115C66.765 18.3402 66.2418 17.9058 65.8629 17.3563C65.5279 16.8584 65.316 16.288 65.2448 15.6922H67.3843C67.4843 16.1782 67.7582 16.611 68.1546 16.9094C68.5619 17.2263 69.1364 17.3848 69.8781 17.3848C70.4054 17.4113 70.9294 17.2885 71.3901 17.0306C71.5662 16.9254 71.7107 16.7748 71.8086 16.5945C71.9065 16.4143 71.9541 16.211 71.9464 16.006C71.9635 15.7814 71.905 15.5575 71.78 15.37C71.655 15.1826 71.4709 15.0424 71.2569 14.9719C70.6464 14.7601 70.0141 14.6174 69.3718 14.5463C68.9215 14.4925 68.4746 14.4131 68.0333 14.3086C67.6033 14.2054 67.1902 14.0413 66.8067 13.8213C66.4393 13.6079 66.1324 13.3044 65.9152 12.9393C65.674 12.4952 65.5581 11.994 65.58 11.4891C65.554 10.8097 65.7446 10.1395 66.1244 9.57543C66.4895 9.05773 66.9963 8.65652 67.584 8.42006C68.869 7.92274 70.2882 7.89412 71.5921 8.33923C72.1003 8.52528 72.5677 8.80782 72.9686 9.17129C73.3213 9.48907 73.6108 9.87057 73.822 10.2957C74.0077 10.666 74.1146 11.0707 74.1358 11.4844H71.9963C71.9072 11.0088 71.6611 10.5768 71.2974 10.2577C70.9241 9.92726 70.3678 9.76085 69.6333 9.76085C69.1302 9.73379 68.6314 9.86515 68.2069 10.1365C68.0342 10.2466 67.8929 10.3994 67.7967 10.5802C67.7005 10.7609 67.6526 10.9635 67.6577 11.1682V11.1801ZM78.9617 10.1412V15.1074C78.9354 15.5995 79.0509 16.0888 79.2946 16.5171C79.5117 16.8626 79.9555 17.0354 80.6259 17.0354C80.9676 17.0318 81.308 16.9911 81.641 16.9141V18.8421C81.1379 18.9259 80.6294 18.9728 80.1195 18.9824C78.9578 18.9824 78.1028 18.6749 77.5544 18.06C77.006 17.4451 76.7326 16.5433 76.7342 15.3546V10.1412H74.7278V8.23939H76.7342V5.69331H78.9617V8.23939H81.6481V10.1412H78.9617Z" fill="#343434"/>
</svg>