<?xml version="1.0" encoding="utf-8"?>
<svg xmlns="http://www.w3.org/2000/svg" width="107" height="34" viewBox="0 0 107 34" fill="none">
<mask id="mask0_4079_62975" style="mask-type:luminance" maskUnits="userSpaceOnUse" x="0" y="0" width="107" height="34">
<path d="M107 0H0V33.6154H107V0Z" fill="white"/>
</mask>
<g mask="url(#mask0_4079_62975)">
<path d="M8.47663 18.8122H6.17482C4.39827 18.8122 2.95321 20.3983 2.95321 22.3482C2.95321 24.2981 4.39827 25.8842 6.17482 25.8842H20.5925L18.1939 29.1255H6.17393C2.77013 29.1245 0 26.0851 0 22.3482C0 18.6113 2.77013 15.5718 6.17393 15.5718H8.47751L8.47569 18.8132L8.47663 18.8122Z" fill="#343434"/>
<path d="M8.47745 15.5718V18.8131L11.4307 15.526L11.4254 13.4493C11.4254 11.4994 12.8704 9.91332 14.6461 9.91332C16.4217 9.91332 17.8676 11.4994 17.8676 13.4493L17.8454 16.0088L20.8209 13.4493C20.8209 9.71236 18.0508 6.67294 14.6461 6.67294C11.2414 6.67294 8.47217 9.71338 8.47217 13.4541L8.47745 15.5718Z" fill="#343434"/>
<path d="M20.8849 3.4911L18.8506 6.67391L17.2029 5.53464L19.0834 2.17816L20.8849 3.4911Z" fill="#343434"/>
<path d="M8.39404 3.4911L10.3528 6.67391L12.1009 5.53464L10.1955 2.17816L8.39404 3.4911Z" fill="#343434"/>
<path d="M15.654 5.24005H13.6251L13.4011 0H15.8717L15.654 5.24005Z" fill="#343434"/>
<path d="M23.9219 28.9099V13.3868H26.8946V26.1202H31.3107V28.9099H23.9219Z" fill="#343434"/>
<path d="M40.2619 28.9099L40.1757 28.2954C38.8399 28.8163 37.5904 29.2415 36.2982 29.2415C35.1784 29.2415 34.0578 28.8865 33.2819 27.8935C32.5709 26.9951 32.3772 25.9075 32.3772 24.4892V16.9706H35.1775V24.301C35.1775 26.0977 36.0396 26.6888 37.3104 26.6888C38.0641 26.6888 38.8399 26.4528 39.8309 26.0743V16.9706H42.6313V28.9108H40.2619V28.9099Z" fill="#343434"/>
<path d="M59.5012 28.9099V21.5796C59.5012 19.8062 58.6392 19.1917 57.347 19.1917C56.5711 19.1917 55.7526 19.4521 54.6969 19.8774C54.8257 20.3505 54.8479 20.8938 54.8479 21.3903V28.909H52.0689V21.5785C52.0689 19.8052 51.1855 19.1907 49.9146 19.1907C49.161 19.1907 48.3852 19.4267 47.4156 19.8286V28.9079H44.6152V16.9677H46.9845L47.0494 17.6056C48.3852 17.0857 49.656 16.636 50.9269 16.636C52.004 16.636 53.0812 16.9433 53.8561 17.8417C55.3216 17.2506 56.9586 16.636 58.3797 16.636C59.4995 16.636 60.6201 16.9911 61.4173 17.9841C62.1283 18.8824 62.3007 19.97 62.3007 21.3893V28.9079H59.5004L59.5012 28.9099Z" fill="#343434"/>
<path d="M67.2033 13.3986H64.187V16.241H67.2033V13.3986Z" fill="#343434"/>
<path d="M67.0309 28.9099H64.2954V16.9696H67.0958V28.9099H67.0309Z" fill="#343434"/>
<path d="M75.764 28.5559C74.9019 29.1001 73.8685 29.2415 72.4254 29.2415C71.4556 29.2415 70.3571 29.1937 69.0427 29.029V26.7123C70.1845 26.8781 71.3046 26.9727 72.1017 26.9727C72.7701 26.9727 73.3728 26.9249 73.8685 26.7601C74.4286 26.5474 74.6012 26.0978 74.6012 25.6013C74.6012 24.9155 74.2566 24.5615 73.5671 24.3244C73.0714 24.1351 72.5974 24.0406 71.8863 23.8513C69.9481 23.307 69.021 22.4086 69.021 20.3758C69.021 19.1468 69.4307 17.9402 70.4431 17.3022C71.2829 16.7579 72.2743 16.6399 73.6308 16.6399C74.4719 16.6399 75.5487 16.7112 76.6898 16.8526V19.0756C75.7417 18.9566 74.6649 18.8386 73.8671 18.8386C73.2637 18.8386 72.7904 18.8864 72.359 19.0278C71.8206 19.2404 71.6703 19.6657 71.6703 20.1154C71.6703 20.7299 71.973 21.0372 72.6177 21.2742C73.0701 21.4391 73.5875 21.5571 74.1685 21.7229C76.2157 22.2194 77.2492 23.189 77.2492 25.3642C77.2492 26.6411 76.8178 27.8935 75.762 28.5568L75.764 28.5559Z" fill="#343434"/>
<path d="M83.2839 29.2416C82.1638 29.2416 80.9996 28.8865 80.3746 27.5394C79.9662 26.7123 79.7712 25.5535 79.7712 24.064V19.2882H78.0693V16.9716H79.7712L80.0515 13.3537H82.5715V16.9716H85.6731V19.2882H82.5715V23.5919C82.5715 24.419 82.5931 25.1526 82.7658 25.7193C82.9805 26.4996 83.4336 26.8303 84.23 26.8303C84.7047 26.8303 85.2857 26.6889 85.8031 26.5942V28.8172C84.92 29.0299 84.0586 29.2426 83.2825 29.2426L83.2839 29.2416Z" fill="#343434"/>
<path d="M87.4683 28.9099V16.9697H89.8378L89.9238 17.7256C91.4537 17.0633 92.4654 16.638 93.8876 16.638C93.9526 16.638 94.0813 16.638 94.1896 16.6614V19.3097H93.4785C92.4451 19.3097 91.5404 19.4989 90.2686 19.9955V28.909H87.4683V28.9099Z" fill="#343434"/>
<path d="M95.9701 33.4262V31.0149C96.6805 31.1095 97.3056 31.1564 97.823 31.1564C99.1158 31.1564 99.6542 30.5886 99.9982 29.501L100.192 28.9099L95.4961 16.9696H98.5977L101.636 25.4344H101.7L104.2 16.9696H107L102.864 29.7615C101.98 32.5044 100.709 33.6154 98.1027 33.6154C97.4783 33.6154 96.6386 33.5208 95.9701 33.4262Z" fill="#343434"/>
<path d="M105.003 30.6637C104.558 30.6637 104.217 30.3019 104.217 29.8102C104.217 29.3186 104.558 28.9567 105.003 28.9567C105.447 28.9567 105.784 29.3186 105.784 29.8102C105.784 30.3019 105.443 30.6637 105.003 30.6637ZM105.003 29.145C104.658 29.145 104.398 29.423 104.398 29.8092C104.398 30.1955 104.658 30.4735 105.003 30.4735C105.347 30.4735 105.601 30.1916 105.601 29.8092C105.601 29.4268 105.344 29.145 105.003 29.145ZM105.213 30.3096L104.988 29.9438H104.926V30.3019H104.715V29.3176H105.007C105.16 29.3176 105.326 29.4308 105.326 29.6327C105.326 29.7381 105.267 29.8307 105.195 29.8804L105.401 30.1916L105.215 30.3096H105.213ZM104.988 29.5147H104.926V29.7458H104.988C105.049 29.7458 105.102 29.7078 105.102 29.6327C105.102 29.5527 105.049 29.5147 104.988 29.5147Z" fill="#B5B5B5"/>
<path d="M21.3755 30.6637C20.9311 30.6637 20.5898 30.3019 20.5898 29.8102C20.5898 29.3186 20.9311 28.9567 21.3755 28.9567C21.8199 28.9567 22.1566 29.3186 22.1566 29.8102C22.1566 30.3019 21.8154 30.6637 21.3755 30.6637ZM21.3755 29.145C21.0306 29.145 20.7703 29.423 20.7703 29.8092C20.7703 30.1955 21.0306 30.4735 21.3755 30.4735C21.7203 30.4735 21.9736 30.1916 21.9736 29.8092C21.9736 29.4268 21.7167 29.145 21.3755 29.145ZM21.5861 30.3096L21.3604 29.9438H21.299V30.3019H21.0884V29.3176H21.38C21.5328 29.3176 21.6981 29.4308 21.6981 29.6327C21.6981 29.7381 21.6403 29.8307 21.5675 29.8804L21.7745 30.1916L21.587 30.3096H21.5861ZM21.3604 29.5147H21.299V29.7458H21.3604C21.4217 29.7458 21.475 29.7078 21.475 29.6327C21.475 29.5527 21.4217 29.5147 21.3604 29.5147Z" fill="#B5B5B5"/>
</g>
</svg>